<?xml version="1.0" encoding="utf-8"?>
<!-- Generator: Adobe Illustrator 25.2.1, SVG Export Plug-In . SVG Version: 6.00 Build 0)  -->
<svg version="1.1" id="Layer_1" xmlns="http://www.w3.org/2000/svg" xmlns:xlink="http://www.w3.org/1999/xlink" x="0px" y="0px"
	 viewBox="0 0 512 512" style="enable-background:new 0 0 512 512;" xml:space="preserve">
<style type="text/css">
	.st0{fill:#478BCC;}
</style>
<g>
	<g>
		<g>
			<path class="st0" d="M61.1,336.9c-14.3,0-25.9,11.6-25.9,25.9s11.6,25.9,25.9,25.9c14.3,0,25.9-11.6,25.9-25.9
				C87,348.5,75.4,336.9,61.1,336.9z M61.1,373.8c-6,0-10.9-4.9-10.9-10.9s4.9-10.9,10.9-10.9S72,356.8,72,362.8
				C72,368.9,67.2,373.8,61.1,373.8z"/>
			<path class="st0" d="M164.8,336.9c-14.3,0-25.9,11.6-25.9,25.9s11.6,25.9,25.9,25.9c14.3,0,25.9-11.6,25.9-25.9
				C190.7,348.5,179.1,336.9,164.8,336.9z M164.8,373.8c-6,0-10.9-4.9-10.9-10.9s4.9-10.9,10.9-10.9s10.9,4.9,10.9,10.9
				C175.7,368.9,170.8,373.8,164.8,373.8z"/>
			<path class="st0" d="M268.4,336.9c-14.3,0-25.9,11.6-25.9,25.9s11.6,25.9,25.9,25.9s25.9-11.6,25.9-25.9
				C294.4,348.5,282.7,336.9,268.4,336.9z M268.4,373.8c-6,0-10.9-4.9-10.9-10.9s4.9-10.9,10.9-10.9c6,0,10.9,4.9,10.9,10.9
				C279.4,368.9,274.5,373.8,268.4,373.8z"/>
			<path class="st0" d="M372.1,336.9c-14.3,0-25.9,11.6-25.9,25.9s11.6,25.9,25.9,25.9c14.3,0,25.9-11.6,25.9-25.9
				C398,348.5,386.4,336.9,372.1,336.9z M372.1,373.8c-6,0-10.9-4.9-10.9-10.9s4.9-10.9,10.9-10.9s10.9,4.9,10.9,10.9
				C383,368.9,378.1,373.8,372.1,373.8z"/>
			<path class="st0" d="M121,355.3h-17.1c-4.1,0-7.5,3.4-7.5,7.5s3.4,7.5,7.5,7.5H121c4.1,0,7.5-3.4,7.5-7.5
				C128.5,358.7,125.1,355.3,121,355.3z"/>
			<path class="st0" d="M225.2,355.3H208c-4.1,0-7.5,3.4-7.5,7.5s3.4,7.5,7.5,7.5h17.1c4.1,0,7.5-3.4,7.5-7.5
				C232.7,358.7,229.3,355.3,225.2,355.3z"/>
			<path class="st0" d="M329.4,355.3h-17.1c-4.1,0-7.5,3.4-7.5,7.5s3.4,7.5,7.5,7.5h17.1c4.1,0,7.5-3.4,7.5-7.5
				C336.9,358.7,333.5,355.3,329.4,355.3z"/>
			<path class="st0" d="M290.4,232.5c-3.7-1.8-8.2-0.3-10,3.5l-12.8,26.4c-1.8,3.7-0.3,8.2,3.5,10c1.1,0.5,2.2,0.8,3.3,0.8
				c2.8,0,5.5-1.6,6.8-4.2l12.8-26.4C295.6,238.8,294.1,234.3,290.4,232.5z"/>
			<path class="st0" d="M316,232.5c-3.7-1.8-8.2-0.3-10,3.5l-12.8,26.4c-1.8,3.7-0.3,8.2,3.5,10c1.1,0.5,2.2,0.8,3.3,0.8
				c2.8,0,5.5-1.6,6.8-4.2l12.8-26.4C321.3,238.8,319.8,234.3,316,232.5z"/>
			<path class="st0" d="M109.9,258.2H92.5c-4.1,0-7.5,3.4-7.5,7.5s3.4,7.5,7.5,7.5h17.4c4.1,0,7.5-3.4,7.5-7.5
				C117.4,261.5,114,258.2,109.9,258.2z"/>
			<path class="st0" d="M211.7,148.9c-2.5-5.3-7.9-8.7-13.8-8.7h-83.4c-8.4,0-15.2,6.8-15.2,15.2v43c0,2.9,0.8,5.6,2.3,8.1
				l22.9,36.8c2.8,4.5,7.6,7.2,12.9,7.2H234c8.4,0,15.2-6.8,15.2-15.2v-3.9c0-2.3-0.5-4.5-1.5-6.6L211.7,148.9z M234,235.5h-96.7
				c-0.1,0-0.2,0-0.2-0.1l-22.9-36.8c0,0,0-0.1,0-0.1v-43c0-0.1,0.1-0.2,0.2-0.2h83.4c0.1,0,0.2,0.1,0.2,0.1l36.1,75.9
				c0,0,0,0.1,0,0.1v3.9l0,0C234.3,235.4,234.2,235.5,234,235.5z"/>
			<path class="st0" d="M509.9,397l-17-27.5c-2.2-3.5-6.8-4.6-10.3-2.4c-3.5,2.2-4.6,6.8-2.4,10.3l15.5,25L429,386.7
				c0.2-0.4,0.4-0.9,0.6-1.3c0.1-0.2,0.2-0.4,0.2-0.6c0.3-0.7,0.6-1.4,0.9-2.2c0.1-0.2,0.2-0.4,0.2-0.6c0.3-0.7,0.5-1.4,0.7-2.2
				c0.1-0.2,0.1-0.5,0.2-0.7c0.2-0.7,0.4-1.4,0.6-2.1c0.1-0.3,0.1-0.5,0.2-0.8c0.2-0.7,0.3-1.4,0.5-2.1c0.1-0.3,0.1-0.6,0.2-0.9
				c0.1-0.7,0.3-1.4,0.4-2c0.1-0.4,0.1-0.7,0.2-1.1c0.1-0.6,0.2-1.3,0.2-1.9c0-0.5,0.1-0.9,0.1-1.4c0-0.6,0.1-1.1,0.1-1.7
				c0-0.9,0.1-1.7,0.1-2.6c0-0.2,0-0.4,0-0.5c0,0,0,0,0,0c0,0,0,0,0,0c0,0,0,0,0,0c0-0.9,0-1.9-0.1-2.8c0-0.3,0-0.6-0.1-0.9l0-0.1
				c0-0.3,0-0.6-0.1-0.9c-0.1-1.1-0.2-2.2-0.3-3.2c0-0.2,0-0.4-0.1-0.6c0,0,0,0,0,0c-0.1-0.4-0.1-0.8-0.2-1.2l0,0
				c-0.1-0.5-0.2-1.1-0.3-1.6c0,0,0,0,0,0c-0.1-0.4-0.1-0.7-0.2-1.1c0,0,0-0.1,0-0.1c-0.1-0.5-0.2-1-0.4-1.5c0,0,0-0.1,0-0.1
				c-0.1-0.4-0.2-0.7-0.3-1c0,0,0-0.1,0-0.1c-0.1-0.5-0.3-1-0.4-1.5c0-0.1,0-0.1-0.1-0.2c-0.1-0.3-0.2-0.6-0.3-0.9
				c0-0.1,0-0.1-0.1-0.2c-0.2-0.5-0.3-0.9-0.5-1.4c0-0.1-0.1-0.2-0.1-0.4c-0.1-0.2-0.2-0.4-0.2-0.7c0-0.1,0-0.1-0.1-0.2
				c-0.2-0.5-0.4-0.9-0.5-1.4l-0.1-0.2c-0.1-0.2-0.1-0.3-0.2-0.5c0-0.1-0.1-0.2-0.1-0.3c0-0.1-0.1-0.2-0.1-0.3
				c-0.2-0.4-0.3-0.7-0.5-1.1l-0.2-0.4c-0.2-0.3-0.3-0.7-0.5-1c-0.2-0.3-0.3-0.6-0.5-0.9l-0.3-0.5c-0.2-0.3-0.4-0.7-0.5-1
				c-0.1-0.2-0.2-0.4-0.3-0.6l-0.1-0.2c-0.6-1.1-1.3-2.2-2-3.2l-0.1-0.1c-0.1-0.2-0.2-0.3-0.3-0.5c-0.3-0.4-0.6-0.9-0.9-1.3
				l-0.3-0.4c-0.1-0.2-0.3-0.4-0.4-0.5c-0.4-0.5-0.7-0.9-1.1-1.4l-0.1-0.2c-0.2-0.2-0.3-0.4-0.4-0.6c-0.4-0.5-0.8-0.9-1.2-1.4
				l-0.1-0.1c-0.2-0.2-0.3-0.4-0.5-0.6c-0.4-0.5-0.8-0.9-1.2-1.4c-0.2-0.2-0.4-0.4-0.6-0.6c-0.4-0.5-0.9-0.9-1.3-1.3
				c-0.2-0.2-0.4-0.4-0.6-0.5c-0.5-0.5-1-0.9-1.4-1.3l-0.5-0.4c-0.5-0.5-1.1-0.9-1.6-1.3l-0.4-0.3c-0.6-0.5-1.2-0.9-1.8-1.3
				l-0.1-0.1c-2.9-2.1-6-4-9.2-5.5c0,0-0.1,0-0.1,0c-1.7-0.8-3.4-1.5-5.1-2.2c-0.2-0.1-0.5-0.2-0.8-0.3c-0.4-0.1-0.7-0.3-1.1-0.4
				c0,0-0.1,0-0.2-0.1c-0.2-0.1-0.4-0.1-0.5-0.2c-0.4-0.1-0.8-0.3-1.2-0.4c-0.2-0.1-0.4-0.1-0.7-0.2l-0.1,0l12.1-51.5l60.9,98.6
				c2.2,3.5,6.8,4.6,10.3,2.4c3.5-2.2,4.6-6.8,2.4-10.3l-62.5-101.1c-2.9-4.8-8.4-7.3-13.9-6.4c-5.5,0.9-9.9,5-11.2,10.4l-13.1,55.7
				c-0.5,0-0.9,0-1.4,0h-3.1v-73.6c0-14.2-11.5-25.7-25.7-25.7h-75.4l-35.4-74.4h23c6.5,0,11.8-5.3,11.8-11.8v-14.2
				c0-6.5-5.3-11.8-11.8-11.8H130c-4.1,0-7.5,3.4-7.5,7.5s3.4,7.5,7.5,7.5h125.1v7.9h-31.7H78h-8.2v-7.9h29.9c4.1,0,7.5-3.4,7.5-7.5
				s-3.4-7.5-7.5-7.5H66.7c-6.5,0-11.8,5.3-11.8,11.8v14.2c0,6.5,5.3,11.8,11.8,11.8h3.8v109.2H59v-39.2c0-5.6-4.6-10.2-10.2-10.2h0
				v-17.5c0-6.5-5.3-11.9-11.9-11.9h-7.2c-4.1,0-7.5,3.4-7.5,7.5s3.4,7.5,7.5,7.5h4.1v14.4h0c-5.6,0-10.2,4.6-10.2,10.2v39.2h-0.6
				c-6.1,0-11,4.9-11,11v57.5c0,5.2,3.7,9.6,8.6,10.7C7.9,327.8,0,343.9,0,361.9c0,32.9,26.8,59.6,59.6,59.6h315.2
				c18.3,0,34.8-8.3,45.7-21.4l74.5,17.6c1.1,0.2,2.1,0.4,3.2,0.4c4.4,0,8.5-2.1,11.1-5.7C512.7,407.8,512.9,401.8,509.9,397z
				 M38.5,203.3H44v34.3h-5.5V203.3z M26.9,252.6h44.7c7.7,0,13.9-6.2,13.9-13.9V128.4h133.1l40.5,85.1c1.2,2.6,3.9,4.3,6.8,4.3H346
				c5.9,0,10.7,4.8,10.7,10.7v73.6H26.9V252.6z M419.4,361.9c0,0.6,0,1.3,0,1.9c0,0.2,0,0.5,0,0.7c0,0.5-0.1,0.9-0.1,1.4
				c0,0.2,0,0.5-0.1,0.7c-0.1,0.6-0.1,1.2-0.2,1.7c0,0.1,0,0.3-0.1,0.5c-0.1,0.6-0.2,1.2-0.3,1.7c0,0.2-0.1,0.4-0.1,0.7
				c-0.1,0.5-0.2,0.9-0.3,1.4c-0.1,0.2-0.1,0.4-0.2,0.6c-0.1,0.6-0.3,1.1-0.5,1.7c0,0.1,0,0.1-0.1,0.2c-0.2,0.6-0.4,1.3-0.6,1.9
				c0,0.1-0.1,0.3-0.2,0.4c-0.2,0.5-0.4,1-0.6,1.5c-0.1,0.2-0.1,0.3-0.2,0.5c-0.2,0.5-0.4,1-0.7,1.5c-0.1,0.1-0.1,0.2-0.2,0.3
				c-0.3,0.6-0.6,1.2-0.9,1.8c0,0,0,0,0,0c-0.3,0.6-0.6,1.1-1,1.7c-0.1,0.1-0.2,0.3-0.2,0.4c-0.3,0.5-0.6,0.9-0.9,1.3
				c-0.1,0.1-0.2,0.3-0.3,0.4c-8,11.8-21.6,19.5-36.9,19.5H59.6c-24.6,0-44.6-20-44.6-44.7c0-24.6,20-44.6,44.6-44.6h315.2
				c2.1,0,4.3,0.2,6.3,0.5c0.3,0,0.5,0.1,0.8,0.1c0.5,0.1,1,0.2,1.5,0.3c0.2,0,0.5,0.1,0.7,0.1c0.4,0.1,0.8,0.2,1.3,0.3
				c0.4,0.1,0.7,0.2,1.1,0.3c0.5,0.1,1,0.3,1.6,0.4c0,0,0.1,0,0.1,0c0.6,0.2,1.1,0.4,1.7,0.6c0.1,0,0.3,0.1,0.4,0.1
				c9.3,3.5,17.2,10,22.4,18.3c0.2,0.3,0.4,0.6,0.6,1c2.1,3.5,3.7,7.4,4.8,11.4c0,0.1,0,0.1,0,0.2c0.2,0.6,0.3,1.3,0.4,1.9
				c0,0.1,0,0.2,0.1,0.3c0.1,0.6,0.2,1.2,0.3,1.9c0,0.1,0,0.2,0.1,0.3c0.1,0.6,0.2,1.2,0.2,1.8c0,0.1,0,0.3,0,0.4
				c0.1,0.6,0.1,1.1,0.1,1.7l0,0.6C419.4,360.4,419.4,361.1,419.4,361.9C419.4,361.9,419.4,361.9,419.4,361.9z"/>
		</g>
	</g>
</g>
</svg>
