<?xml version="1.0" encoding="utf-8"?>
<!-- Generator: Adobe Illustrator 27.8.0, SVG Export Plug-In . SVG Version: 6.00 Build 0)  -->
<svg version="1.1" id="Layer_1" xmlns="http://www.w3.org/2000/svg" xmlns:xlink="http://www.w3.org/1999/xlink" x="0px" y="0px"
	 viewBox="0 0 512 512" style="enable-background:new 0 0 512 512;" xml:space="preserve">
<style type="text/css">
	.st0{fill:#478BCC;}
</style>
<g transform="translate(0,-952.36218)">
	<path class="st0" d="M258.1,976.5c-5.5,0-10,4.5-10,10v40.2c0,5.5,4.5,10,10,10c5.5,0,10-4.5,10-10v-40.2
		C268.1,981,263.6,976.5,258.1,976.5z M116,1035.4c-2.6,0-5.1,1-7.1,3c-3.9,3.9-3.9,10.2,0,14.1l28.4,28.4c3.9,3.9,10.2,3.9,14.1,0
		c3.9-3.9,3.9-10.2,0-14.1l-28.4-28.4C121.1,1036.4,118.6,1035.4,116,1035.4z M400.1,1035.4c-2.6,0-5.1,1-7.1,3l-28.4,28.4
		c-3.9,3.9-3.9,10.2,0,14.1c3.9,3.9,10.2,3.9,14.1,0l28.4-28.4c3.9-3.9,3.9-10.2,0-14.1C405.2,1036.4,402.7,1035.4,400.1,1035.4z
		 M258.1,1056.9c-66.5,0-130.6,51.7-130.6,124.8c0,46.1,18,75.4,34.5,98.9c16.6,23.5,30.8,40.7,30.8,67.7v60.3
		c0,17,14.1,30.1,30.1,30.1h70.3c16,0,30.1-13.1,30.1-30.1v-60.3c0-26.9,14.2-44.2,30.8-67.7c16.6-23.5,34.5-52.8,34.5-98.9
		C388.7,1108.5,324.5,1056.9,258.1,1056.9z M258.1,1077c56.1,0,110.5,43.4,110.5,104.7c0,41.1-14.7,64.5-30.8,87.3
		c-14.4,20.4-30.7,40.6-33.9,69.2h-91.7c-3.2-28.6-19.5-48.8-33.9-69.2c-16.1-22.7-30.8-46.2-30.8-87.3
		C147.6,1120.4,202,1077,258.1,1077z M246.9,1092.7c-47.4,5.5-84.3,46-84.3,94.8c0,9.8,1.5,19.1,4.2,27.9c1.1,5.4,7.4,9.1,12.7,7.5
		c5.3-1.6,8.5-8.2,6.4-13.3c-2.2-7-3.3-14.4-3.3-22.1c0-38.7,28.9-70.5,66.4-74.9c5.3-0.4,9.7-5.6,9.3-10.8
		C258.2,1094.9,252.3,1092.3,246.9,1092.7z M57.2,1177.4c-5.5,0-10,4.5-10,10s4.5,10,10,10h40.2c5.5,0,10-4.5,10-10
		c0-5.5-4.5-10-10-10H57.2z M418.8,1177.4c-5.5,0-10,4.5-10,10s4.5,10,10,10H459c5.5,0,10-4.5,10-10c0-5.5-4.5-10-10-10H418.8z
		 M212.9,1358.3h90.4v20.1h-90.4V1358.3z M212.9,1398.4h90.4v10c0,6-4.8,10-10,10h-70.3c-5.2,0-10-4-10-10V1398.4z"/>
</g>
</svg>
