<?xml version="1.0" encoding="utf-8"?>
<!-- Generator: Adobe Illustrator 27.1.1, SVG Export Plug-In . SVG Version: 6.00 Build 0)  -->
<svg version="1.1" id="Layer_1" xmlns="http://www.w3.org/2000/svg" xmlns:xlink="http://www.w3.org/1999/xlink" x="0px" y="0px"
	 viewBox="0 0 2195.5 765.2" style="enable-background:new 0 0 2195.5 765.2;" xml:space="preserve">
<style type="text/css">
	.st0{fill:url(#SVGID_1_);}
	.st1{fill:#5A5D9D;}
	.st2{fill:#FFFFFF;}
	.st3{enable-background:new    ;}
</style>
<linearGradient id="SVGID_1_" gradientUnits="userSpaceOnUse" x1="426.3931" y1="47.7069" x2="1110.5942" y2="731.9081" gradientTransform="matrix(1 0 0 -1 0 768)">
	<stop  offset="0" style="stop-color:#4D4D4D"/>
	<stop  offset="1" style="stop-color:#000000"/>
</linearGradient>
<path class="st0" d="M392.1,686L126.9,420.8c-21.1-21.1-21.1-55.3,0-76.4L392.1,79.2c21.1-21.1,55.3-21.1,76.4,0l265.2,265.2
	c21.1,21.1,21.1,55.3,0,76.4L468.5,686C447.4,707.1,413.2,707.1,392.1,686z M1062.5,185.5h-71c-5,0-9.3,3.5-10.2,8.4l-40.8,195.7
	l-40.6-195.7c-0.9-4.8-5.4-8.4-10.5-8.4h-70.7c-6,0-10.8,4.7-10.8,10.8v350.6c0,6,4.7,10.8,10.8,10.8h57.1c6,0,10.8-4.7,10.8-10.8
	V408.3L911,548.8c0.9,5.2,5.1,8.8,10.3,8.8h39.2c5.2,0,9.6-3.7,10.5-8.8l23.8-135.6v133.6c0,6,4.7,10.8,10.8,10.8h57.1
	c6,0,10.8-4.7,10.8-10.8V196.3C1073.2,190.2,1068.5,185.5,1062.5,185.5z M1268.8,361.2c17.6-10.7,25.7-32.7,25.7-68.7v-38.1
	c0-27.7-8-46.7-23.7-56.6c-14.6-8.9-30.3-12.4-55.8-12.4h-100.7c-6,0-10.8,4.7-10.8,10.8v350.6c0,6,4.7,10.8,10.8,10.8H1232
	c25.2,0,41.7-6.4,52-20.2c10-13.4,14.5-34,14.5-66.7v-41.6C1298.5,391,1289.7,370.1,1268.8,361.2z M1198,335h-11.6l-0.4-91.5h7.6
	c19.9,0,24.6,2.7,24.6,28.9v36c0,12.1-1.4,19.3-4.3,22.7C1211.3,333.9,1206.8,335,1198,335z M1186.3,393.5h13.2
	c10.2,0,13.2,1.9,15,5.4c3,5.6,3.5,16.9,3.5,33.3v39.6c0,26.7-1.3,27.3-18.1,27.3h-13.6V393.5z"/>
<g>
	<g>
		<g>
			<path class="st1" d="M660.5,295.2H528.8c-3.4,0-6.4-2.2-7.4-5.4l-11-33.2c-1.4-4.1,0.9-8.5,5-9.9c4.1-1.4,8.5,0.9,9.9,5l9.2,27.8
				h126c4.3,0,7.8,3.5,7.8,7.8C668.3,291.7,664.8,295.2,660.5,295.2z"/>
			<path class="st1" d="M660.5,297.7H528.8c-4.5,0-8.4-2.9-9.8-7.2l-11-33.2c-0.9-2.6-0.7-5.4,0.6-7.9c1.2-2.4,3.4-4.3,6-5.2
				c2.6-0.9,5.4-0.7,7.9,0.6c2.4,1.2,4.3,3.4,5.2,6l8.6,26.1h124.2c5.7,0,10.3,4.6,10.3,10.3C670.8,293,666.2,297.7,660.5,297.7z
				 M517.9,248.8c-0.6,0-1.1,0.1-1.7,0.3c-1.4,0.5-2.5,1.4-3.1,2.7c-0.6,1.3-0.8,2.7-0.3,4l11,33.2c0.7,2.2,2.7,3.7,5,3.7h131.7
				c2.9,0,5.3-2.4,5.3-5.4c0-2.9-2.4-5.3-5.3-5.3H532.7l-9.8-29.5c-0.5-1.4-1.4-2.5-2.7-3.1C519.5,249,518.7,248.8,517.9,248.8z"/>
		</g>
	</g>
	<g>
		<path class="st1" d="M638.9,219.1h-88c-5,0-9,4-9,9v31.3c0,5,4,9,9,9h88c5,0,9-4,9-9v-31.3C647.8,223.1,643.8,219.1,638.9,219.1z"
			/>
		<path class="st1" d="M638.9,270.9h-88c-6.3,0-11.5-5.2-11.5-11.5v-31.3c0-6.3,5.2-11.5,11.5-11.5h88c6.2,0,11.4,5.1,11.5,11.5
			l0,31.3C650.4,265.7,645.2,270.9,638.9,270.9z M550.9,221.6c-3.6,0-6.5,2.9-6.5,6.5v31.3c0,3.6,2.9,6.5,6.5,6.5h88
			c3.6,0,6.5-2.9,6.5-6.5v-31.3c-0.1-3.6-3-6.5-6.5-6.5H550.9z"/>
	</g>
	<g>
		<path class="st1" d="M638.9,161.1h-88c-5,0-9,4-9,9v31.3c0,5,4,9,9,9h88c5,0,9-4,9-9v-31.3C647.8,165.1,643.8,161.1,638.9,161.1z"
			/>
		<path class="st1" d="M638.9,212.9h-88c-6.3,0-11.5-5.2-11.5-11.5v-31.3c0-6.3,5.2-11.5,11.5-11.5h88c6.2,0,11.4,5.1,11.5,11.5
			l0,31.3C650.4,207.7,645.2,212.9,638.9,212.9z M550.9,163.6c-3.6,0-6.5,2.9-6.5,6.5v31.3c0,3.6,2.9,6.5,6.5,6.5h88
			c3.6,0,6.5-2.9,6.5-6.5v-31.3c-0.1-3.6-3-6.5-6.5-6.5H550.9z"/>
	</g>
	<g>
		<g>
			<path class="st1" d="M439.6,269.2c0.1,0.1,0.2,0.1,0.4,0.1h80.3c2,0,3.6-2.1,3.6-4.8v-17c0-2.5-1.5-4.6-3.4-4.8l-173-15.3
				c-1.1-0.1-1.4,1.4-0.5,1.8L439.6,269.2z"/>
			<path class="st1" d="M520.3,271.8H440c-0.3,0-0.9,0-1.6-0.4L346,231.5c-1.6-0.7-2.4-2.4-1.9-4c0.4-1.7,1.9-2.7,3.6-2.6l173,15.3
				c3.3,0.3,5.7,3.5,5.7,7.3v17C526.4,268.6,523.7,271.8,520.3,271.8z M440.3,266.8h80c0.4,0,1.1-0.9,1.1-2.3v-17
				c0-1.4-0.8-2.3-1.2-2.3l-163.4-14.4L440.3,266.8z M347.3,229.9C347.3,229.9,347.3,229.9,347.3,229.9L347.3,229.9z"/>
		</g>
	</g>
	<g>
		<g>
			<path class="st1" d="M571.9,341.9c0.8-0.3,0.9-1.4,0.1-1.7L307,225.7c-8.9-3.8-19.2,0.2-23,9.1l-3.2,7.4
				c-3.8,8.9,0.2,19.2,9.1,23L511,360.8c0.2,0.1,0.4,0.1,0.6,0L571.9,341.9z"/>
			<path class="st1" d="M511.3,363.4c-0.5,0-0.9-0.1-1.3-0.3l-221.1-95.6c-10.1-4.3-14.8-16.1-10.4-26.3l3.2-7.4
				c2.1-4.9,6-8.7,11-10.6c4.9-1.9,10.4-1.9,15.3,0.2l265,114.5c1.3,0.5,2.1,1.7,2.1,3.1c0,1.4-0.9,2.7-2.3,3.3l-0.1,0l-60.2,18.9
				C512.1,363.3,511.7,363.4,511.3,363.4z M300,226.8c-1.9,0-3.7,0.3-5.5,1.1c-3.7,1.5-6.6,4.3-8.2,8l-3.2,7.4
				c-3.3,7.6,0.2,16.5,7.8,19.7l220.5,95.3l55.7-17.5L306,228C304.1,227.2,302.1,226.8,300,226.8z"/>
		</g>
	</g>
	<g>
		<g>
			<path class="st1" d="M634.4,371.4l-2-6.4c-4.4-14.1-19.4-21.9-33.4-17.5l-138.2,43.3c-0.8,0.2-0.9,1.3-0.2,1.7l61.4,37.2
				c1.6,0.9,3.1,1.9,4.6,3c0.2,0.2,0.5,0.2,0.8,0.1l89.5-28C631,400.4,638.8,385.5,634.4,371.4z"/>
			<path class="st1" d="M527,435.4c-0.7,0-1.4-0.2-2-0.7c-1.5-1.1-2.9-2-4.3-2.8l-61.5-37.2c-1.2-0.7-1.8-2-1.6-3.4
				c0.2-1.3,1.1-2.4,2.4-2.8l138.2-43.3c7.4-2.3,15.3-1.6,22.2,2c6.9,3.6,12,9.7,14.3,17.2l2,6.4c2.3,7.5,1.6,15.4-2,22.2
				c-3.6,6.9-9.7,12-17.2,14.3l-89.5,28C527.8,435.3,527.4,435.4,527,435.4z M526.6,430.4C526.6,430.4,526.6,430.4,526.6,430.4
				L526.6,430.4z M464.8,392.2l58.4,35.4c1.3,0.7,2.6,1.6,4.1,2.6l88.8-27.8c6.2-1.9,11.2-6.1,14.2-11.8c3-5.7,3.6-12.2,1.6-18.4
				l-2-6.4c-1.9-6.2-6.1-11.2-11.9-14.2c-5.7-3-12.3-3.6-18.4-1.6L464.8,392.2z M461.8,390.3L461.8,390.3
				C461.9,390.4,461.9,390.3,461.8,390.3z"/>
		</g>
	</g>
	<g>
		<path class="st1" d="M529.9,513c-28.2,0-51,22.8-51,51s22.8,51,51,51s51-22.8,51-51C580.9,535.9,558.1,513,529.9,513z
			 M529.9,586.3c-12.3,0-22.2-9.9-22.2-22.2s9.9-22.2,22.2-22.2s22.2,9.9,22.2,22.2C552.1,576.3,542.2,586.3,529.9,586.3z"/>
		<path class="st1" d="M529.9,617.5c-29.5,0-53.5-24-53.5-53.5s24-53.5,53.5-53.5s53.5,24,53.5,53.5S559.4,617.5,529.9,617.5z
			 M529.9,515.5c-26.7,0-48.5,21.8-48.5,48.5s21.8,48.5,48.5,48.5s48.5-21.8,48.5-48.5S556.6,515.5,529.9,515.5z M529.9,588.8
			c-13.6,0-24.7-11.1-24.7-24.7c0-13.6,11.1-24.7,24.7-24.7s24.7,11.1,24.7,24.7C554.6,577.7,543.5,588.8,529.9,588.8z M529.9,544.4
			c-10.9,0-19.7,8.8-19.7,19.7s8.8,19.7,19.7,19.7c10.9,0,19.7-8.8,19.7-19.7S540.8,544.4,529.9,544.4z"/>
	</g>
	<g>
		<path class="st1" d="M282.6,513c-28.2,0-51,22.8-51,51s22.8,51,51,51s51-22.8,51-51C333.6,535.9,310.8,513,282.6,513z
			 M282.6,586.3c-12.3,0-22.2-9.9-22.2-22.2s9.9-22.2,22.2-22.2s22.2,9.9,22.2,22.2C304.8,576.3,294.9,586.3,282.6,586.3z"/>
		<path class="st1" d="M282.6,617.5c-29.5,0-53.5-24-53.5-53.5s24-53.5,53.5-53.5s53.5,24,53.5,53.5S312.1,617.5,282.6,617.5z
			 M282.6,515.5c-26.7,0-48.5,21.8-48.5,48.5s21.8,48.5,48.5,48.5s48.5-21.8,48.5-48.5S309.3,515.5,282.6,515.5z M282.6,588.8
			c-13.6,0-24.7-11.1-24.7-24.7c0-13.6,11.1-24.7,24.7-24.7s24.7,11.1,24.7,24.7C307.3,577.7,296.2,588.8,282.6,588.8z M282.6,544.4
			c-10.9,0-19.7,8.8-19.7,19.7s8.8,19.7,19.7,19.7c10.9,0,19.7-8.8,19.7-19.7S293.5,544.4,282.6,544.4z"/>
	</g>
	<g>
		<path class="st1" d="M529.9,494c5.8,0,11.4,0.7,16.8,2c1.2,0.3,2.3-0.7,2.2-1.9c-2.6-22.9-15.2-43.3-34.3-54.9L408,374.7
			c-8.3-5-17.6-7.6-27.1-7.6h-34.5c-1,0-1.8,0.8-1.8,1.8v132.3c0,1,0.8,1.8,1.8,1.8h148.9c0.3,0,0.6-0.1,0.8-0.2
			C506.1,497.1,517.7,494,529.9,494z M382.1,481.3c0,1.7-1.3,3-3,3h-13.2c-1.7,0-3-1.3-3-3v-68.6c0-1.7,1.3-3,3-3h13.2
			c1.7,0,3,1.3,3,3V481.3z M412.6,484.3h-13.2c-1.7,0-3-1.3-3-3v-53.4c0-1.7,1.3-3,3-3h13.2c1.7,0,3,1.3,3,3v53.4
			C415.6,482.9,414.2,484.3,412.6,484.3z"/>
		<path class="st1" d="M495.3,505.5H346.4c-2.4,0-4.3-1.9-4.3-4.3V368.9c0-2.4,1.9-4.3,4.3-4.3h34.5c9.9,0,19.7,2.8,28.4,8
			l106.6,64.5c19.5,11.9,32.8,33.1,35.5,56.8c0.1,1.5-0.4,2.8-1.5,3.7c-1,0.9-2.5,1.2-3.8,0.9c-5.3-1.3-10.8-1.9-16.2-1.9
			c-11.6,0-22.8,2.9-32.6,8.5l-0.1,0.1C496.9,505.2,496.2,505.5,495.3,505.5z M347.1,500.5h148c10.4-5.9,22.5-9,34.8-9
			c5.5,0,11,0.6,16.4,1.8c-2.8-21.7-15-41.1-33-52l-106.6-64.5c-7.9-4.7-16.8-7.2-25.8-7.2h-33.8V500.5z M547.3,493.6
			C547.3,493.6,547.3,493.6,547.3,493.6C547.3,493.6,547.3,493.6,547.3,493.6z M412.6,486.8h-13.2c-3.1,0-5.5-2.4-5.5-5.5v-53.4
			c0-3.1,2.4-5.5,5.5-5.5h13.2c3.1,0,5.5,2.4,5.5,5.5v53.4C418.1,484.3,415.6,486.8,412.6,486.8z M399.4,427.4
			c-0.3,0-0.5,0.2-0.5,0.5v53.4c0,0.3,0.2,0.5,0.5,0.5h13.2c0.2,0,0.5-0.3,0.5-0.5v-53.4c0-0.3-0.2-0.5-0.5-0.5H399.4z M379.1,486.8
			h-13.2c-3.1,0-5.5-2.4-5.5-5.5v-68.6c0-3.1,2.4-5.5,5.5-5.5h13.2c3.1,0,5.5,2.4,5.5,5.5v68.6C384.6,484.4,382.2,486.8,379.1,486.8
			z M365.9,412.2c-0.3,0-0.5,0.2-0.5,0.5v68.6c0,0.3,0.2,0.5,0.5,0.5h13.2c0.3,0,0.5-0.2,0.5-0.5v-68.6c0-0.3-0.2-0.5-0.5-0.5H365.9
			z"/>
	</g>
	<g>
		<path class="st1" d="M282.6,494c12.3,0,23.8,3.2,33.8,8.7c0.3,0.1,0.5,0.2,0.8,0.2h5.5c1,0,1.8-0.8,1.8-1.8V368.8
			c0-1-0.8-1.8-1.8-1.8h-38.5c-11.6,0-21,10-21,22.4v91.1c0,5.3,1.8,10.2,4.7,14c0.4,0.5,1.1,0.8,1.7,0.6
			C273.8,494.4,278.2,494,282.6,494z"/>
		<path class="st1" d="M322.7,505.4h-5.5c-0.7,0-1.2-0.2-1.5-0.3l-0.5-0.2c-10-5.5-21.3-8.4-32.6-8.4c-4.1,0-8.2,0.4-12.5,1
			c-1.5,0.4-3.2-0.2-4.2-1.5c-3.4-4.4-5.2-10-5.2-15.6v-91.1c0-13.7,10.5-24.9,23.5-24.9h38.5c2.4,0,4.3,1.9,4.3,4.3v132.3
			C327,503.5,325.1,505.4,322.7,505.4z M317.4,500.4h4.6V369.5h-37.8c-10.2,0-18.5,8.9-18.5,19.9v91.1c0,4.3,1.4,8.6,3.9,12.1
			c4.4-0.7,8.8-1.1,13-1.1C294.7,491.5,306.7,494.6,317.4,500.4z"/>
	</g>
	<g>
		<g>
			<path class="st1" d="M468.2,527.7H344.3c-0.8,0-1.3,0.8-0.9,1.5c3.9,6.8,6.7,14.3,8.1,22.3c0.1,0.5,0.5,0.8,1,0.8h107.3
				c0.5,0,0.9-0.4,1-0.8c1.4-8,4.2-15.5,8.1-22.3C469.4,528.6,469,527.7,468.2,527.7z"/>
			<path class="st1" d="M459.8,554.8H352.5c-1.7,0-3.1-1.2-3.5-2.8c-1.3-7.6-4-14.8-7.8-21.5c-0.6-1.1-0.6-2.4,0-3.5
				c0.6-1.1,1.8-1.8,3.1-1.8h123.9c1.3,0,2.5,0.8,3.1,2c0.5,1.1,0.4,2.4-0.3,3.4c-3.8,6.7-6.4,13.9-7.7,21.4l0,0.2
				C462.8,553.7,461.4,554.8,459.8,554.8z M353.7,549.8h104.8c1.3-6.8,3.6-13.4,6.9-19.6H346.8C350.1,536.4,352.4,543,353.7,549.8z"
				/>
		</g>
	</g>
	<g>
		<g>
			<path class="st1" d="M459.3,566.3c0.3,0,0.6-0.3,0.5-0.6c0-0.6,0-1.1,0-1.7c0-0.6,0-1.1,0-1.7c0-0.3-0.2-0.6-0.5-0.6h-106
				c-0.3,0-0.6,0.3-0.5,0.6c0,0.6,0,1.1,0,1.7c0,0.6,0,1.1,0,1.7c0,0.3,0.2,0.6,0.5,0.6H459.3z"/>
			<path class="st1" d="M459.3,568.8h-106c-1.7,0-3-1.4-3-3.1v-3.2c-0.1-0.7,0.1-1.4,0.5-2c0.6-0.8,1.5-1.3,2.5-1.3h106
				c1.7,0,3,1.4,3,3.1v3.2c0.1,0.7-0.1,1.4-0.5,2C461.2,568.3,460.3,568.8,459.3,568.8z"/>
		</g>
	</g>
	<g>
		<g>
			<path class="st1" d="M459.9,572.9H352.6c-0.3,0-0.5,0.2-0.5,0.5c-0.2,1.1-0.3,2.3-0.5,3.4c-0.1,0.3,0.2,0.6,0.5,0.6h108.3
				c0.3,0,0.6-0.3,0.5-0.6c-0.2-1.1-0.4-2.2-0.5-3.4C460.4,573.1,460.2,572.9,459.9,572.9z"/>
			<path class="st1" d="M460.4,579.9H352.1c-1,0-1.9-0.5-2.5-1.3c-0.5-0.7-0.7-1.6-0.5-2.4c0.1-0.5,0.1-1,0.2-1.5
				c0.1-0.6,0.1-1.1,0.2-1.7c0.1-1.5,1.4-2.7,3-2.7h107.3c1.6,0,2.9,1.2,3,2.9c0.1,1,0.3,2,0.4,3c0.2,0.8,0,1.7-0.5,2.4
				C462.3,579.4,461.4,579.9,460.4,579.9z"/>
		</g>
	</g>
</g>
<g>
	<g>
		<path class="st2" d="M649.2,293.6H528.8c-3.4,0-6.4-2.2-7.4-5.4l-11-33.2c-1.4-4.1,0.9-8.5,5-9.9c4.1-1.4,7-4.5,8.4-0.4l8.4,26.2
			c1.4,4.2,5.3,7,9.7,7H649c4.2,0,7.8,3.2,8.1,7.3C657.3,289.8,653.7,293.6,649.2,293.6z"/>
	</g>
	<path class="st2" d="M638.3,217.5h-87.5c-5,0-9,4-9,9v31.3c0,5,4,9,9,9h87.5c5,0,9-4,9-9v-31.3
		C647.3,221.5,643.3,217.5,638.3,217.5z"/>
	<path class="st2" d="M638.3,159.5h-87.5c-5,0-9,4-9,9v31.3c0,5,4,9,9,9h87.5c5,0,9-4,9-9v-31.3
		C647.3,163.6,643.3,159.5,638.3,159.5z"/>
	<g>
		<path class="st2" d="M439.6,267.7c0.1,0.1,0.2,0.1,0.4,0.1h80.3c2,0,3.6-2.1,3.6-4.8v-17c0-2.5-1.5-4.6-3.4-4.8l-173-15.3
			c-1.1-0.1-1.4,1.4-0.5,1.8L439.6,267.7z"/>
	</g>
	<g>
		<path class="st2" d="M571.9,340.4c0.8-0.3,0.9-1.4,0.1-1.7L307,224.1c-8.9-3.8-19.2,0.2-23,9.1l-3.2,7.4c-3.8,8.9,0.2,19.2,9.1,23
			L511,359.2c0.2,0.1,0.4,0.1,0.6,0L571.9,340.4z"/>
	</g>
	<g>
		<path class="st2" d="M634.4,369.8l-2-6.4c-4.4-14.1-19.4-21.9-33.4-17.5l-138.2,43.3c-0.8,0.2-0.9,1.3-0.2,1.7l61.4,37.2
			c1.6,0.9,3.1,1.9,4.6,3c0.2,0.2,0.5,0.2,0.8,0.1l89.5-28C631,398.8,638.8,383.9,634.4,369.8z"/>
	</g>
	<path class="st2" d="M529.9,511.5c-28.2,0-51,22.8-51,51s22.8,51,51,51s51-22.8,51-51S558.1,511.5,529.9,511.5z M529.9,584.7
		c-12.3,0-22.2-9.9-22.2-22.2s9.9-22.2,22.2-22.2s22.2,9.9,22.2,22.2C552.1,574.8,542.2,584.7,529.9,584.7z"/>
	<path class="st2" d="M282.6,511.5c-28.2,0-51,22.8-51,51s22.8,51,51,51s51-22.8,51-51S310.8,511.5,282.6,511.5z M282.6,584.7
		c-12.3,0-22.2-9.9-22.2-22.2s9.9-22.2,22.2-22.2s22.2,9.9,22.2,22.2C304.8,574.8,294.9,584.7,282.6,584.7z"/>
	<path class="st2" d="M529.9,492.4c5.8,0,11.4,0.7,16.8,2c1.2,0.3,2.3-0.7,2.2-1.9c-2.6-22.9-15.2-43.3-34.3-54.9L408,373.1
		c-8.3-5-17.6-7.6-27.1-7.6h-34.5c-1,0-1.8,0.8-1.8,1.8v132.3c0,1,0.8,1.8,1.8,1.8h148.9c0.3,0,0.6-0.1,0.8-0.2
		C506.1,495.6,517.7,492.4,529.9,492.4z M382.1,479.7c0,1.7-1.3,3-3,3h-13.2c-1.7,0-3-1.3-3-3v-68.6c0-1.7,1.3-3,3-3h13.2
		c1.7,0,3,1.3,3,3V479.7z M412.6,482.7h-13.2c-1.7,0-3-1.3-3-3v-53.4c0-1.7,1.3-3,3-3h13.2c1.7,0,3,1.3,3,3v53.4
		C415.6,481.4,414.2,482.7,412.6,482.7z"/>
	<path class="st2" d="M282.6,492.4c12.3,0,23.8,3.2,33.8,8.7c0.3,0.1,0.5,0.2,0.8,0.2h5.5c1,0,1.8-0.8,1.8-1.8V367.2
		c0-1-0.8-1.8-1.8-1.8h-38.5c-11.6,0-21,10-21,22.4v91.1c0,5.3,1.8,10.2,4.7,14c0.4,0.5,1.1,0.8,1.7,0.6
		C273.8,492.8,278.2,492.4,282.6,492.4z"/>
	<g>
		<path class="st2" d="M468.2,526.2H344.3c-0.8,0-1.3,0.8-0.9,1.5c3.9,6.8,6.7,14.3,8.1,22.3c0.1,0.5,0.5,0.8,1,0.8h107.3
			c0.5,0,0.9-0.4,1-0.8c1.4-8,4.2-15.5,8.1-22.3C469.4,527,469,526.2,468.2,526.2z"/>
	</g>
	<g>
		<path class="st2" d="M459.3,564.8c0.3,0,0.6-0.3,0.5-0.6c0-0.6,0-1.1,0-1.7c0-0.6,0-1.1,0-1.7c0-0.3-0.2-0.6-0.5-0.6h-106
			c-0.3,0-0.6,0.3-0.5,0.6c0,0.6,0,1.1,0,1.7c0,0.6,0,1.1,0,1.7c0,0.3,0.2,0.6,0.5,0.6H459.3z"/>
	</g>
	<g>
		<path class="st2" d="M459.9,571.3H352.6c-0.3,0-0.5,0.2-0.5,0.5c-0.2,1.1-0.3,2.3-0.5,3.4c-0.1,0.3,0.2,0.6,0.5,0.6h108.3
			c0.3,0,0.6-0.3,0.5-0.6c-0.2-1.1-0.4-2.2-0.5-3.4C460.4,571.5,460.2,571.3,459.9,571.3z"/>
	</g>
</g>
<g>
	<g class="st3">
		<path class="st1" d="M1453.6,196.3c0-3.1,2.5-5.6,5.6-5.6h61.3c3.1,0,5.6,2.5,5.6,5.6v350.6c0,3.1-2.5,5.6-5.6,5.6h-61.3
			c-3.1,0-5.6-2.5-5.6-5.6V397.1H1411v149.8c0,3.1-2.5,5.6-5.6,5.6h-61.3c-3.1,0-5.6-2.5-5.6-5.6V196.3c0-3.1,2.5-5.6,5.6-5.6h61.3
			c3.1,0,5.6,2.5,5.6,5.6v152.7h42.5V196.3z"/>
		<path class="st1" d="M1643.2,546.8c0,3.1-2.5,5.6-5.6,5.6h-61.1c-3.1,0-5.6-2.5-5.6-5.6V196.3c0-3.1,2.5-5.6,5.6-5.6h61.1
			c3.1,0,5.6,2.5,5.6,5.6V546.8z"/>
		<path class="st1" d="M1871.4,316.7c0,32-11.2,53.7-33.8,65.1c21.9,11.4,32.9,31.8,32.9,61.1v103.7c0,3.1-2.5,5.8-5.6,5.8h-55.5
			c-3.1,0-5.8-2.5-5.8-5.6v-88.4c0-18.8,0-24-1.8-34.7c-2.2-12.5-9.4-17.5-24.4-17.5H1761v140.6c0,3.1-2.5,5.6-5.6,5.6h-61.3
			c-3.1,0-5.6-2.5-5.6-5.6V196.3c0-3.1,2.5-5.6,5.6-5.6h100.7c33.1,0,52.8,5.6,63.4,20.1c10.5,14.6,13.2,30.7,13.2,60.2V316.7z
			 M1761,238.3v119.3h12.8c21.9,0,29.3-7.4,29.3-39v-44.6c0-30.4-7.8-35.8-27.5-35.8H1761z"/>
		<path class="st1" d="M2059,232.7c0,3.1-2.5,5.6-5.6,5.6h-72.3v110.6h58c3.1,0,5.6,2.5,5.6,5.6v36.7c0,3.1-2.5,5.8-5.6,5.8h-58
			v107.2h72.1c3.1,0,5.8,2.5,5.8,5.6v36.7c0,3.1-2.5,5.8-5.6,5.8h-139.3c-3.1,0-5.6-2.5-5.6-5.6V196.3c0-3.1,2.5-5.6,5.6-5.6h139.3
			c3.1,0,5.6,2.5,5.6,5.6V232.7z"/>
	</g>
</g>
</svg>
