<?xml version="1.0" encoding="utf-8"?>
<!-- Generator: Adobe Illustrator 27.1.1, SVG Export Plug-In . SVG Version: 6.00 Build 0)  -->
<svg version="1.1" id="Layer_1" xmlns="http://www.w3.org/2000/svg" xmlns:xlink="http://www.w3.org/1999/xlink" x="0px" y="0px"
	 viewBox="0 0 2195.5 765.2" style="enable-background:new 0 0 2195.5 765.2;" xml:space="preserve">
<style type="text/css">
	.st0{enable-background:new    ;}
	.st1{fill:#B3B3B3;}
	.st2{fill:#FFFFFF;}
	.st3{fill:#262A44;}
	.st4{fill:#5A5D9D;}
</style>
<g>
	<g class="st0">
		<path class="st1" d="M1453.6,196.3c0-3.1,2.5-5.6,5.6-5.6h61.3c3.1,0,5.6,2.5,5.6,5.6v350.6c0,3.1-2.5,5.6-5.6,5.6h-61.3
			c-3.1,0-5.6-2.5-5.6-5.6V397.1H1411v149.8c0,3.1-2.5,5.6-5.6,5.6h-61.3c-3.1,0-5.6-2.5-5.6-5.6V196.3c0-3.1,2.5-5.6,5.6-5.6h61.3
			c3.1,0,5.6,2.5,5.6,5.6v152.7h42.5V196.3z"/>
		<path class="st1" d="M1643.2,546.8c0,3.1-2.5,5.6-5.6,5.6h-61.1c-3.1,0-5.6-2.5-5.6-5.6V196.3c0-3.1,2.5-5.6,5.6-5.6h61.1
			c3.1,0,5.6,2.5,5.6,5.6V546.8z"/>
		<path class="st1" d="M1871.4,316.7c0,32-11.2,53.7-33.8,65.1c21.9,11.4,32.9,31.8,32.9,61.1v103.7c0,3.1-2.5,5.8-5.6,5.8h-55.5
			c-3.1,0-5.8-2.5-5.8-5.6v-88.4c0-18.8,0-24-1.8-34.7c-2.2-12.5-9.4-17.5-24.4-17.5H1761v140.6c0,3.1-2.5,5.6-5.6,5.6h-61.3
			c-3.1,0-5.6-2.5-5.6-5.6V196.3c0-3.1,2.5-5.6,5.6-5.6h100.7c33.1,0,52.8,5.6,63.4,20.1c10.5,14.6,13.2,30.7,13.2,60.2V316.7z
			 M1761,238.3v119.3h12.8c21.9,0,29.3-7.4,29.3-39v-44.6c0-30.4-7.8-35.8-27.5-35.8H1761z"/>
		<path class="st1" d="M2059,232.7c0,3.1-2.5,5.6-5.6,5.6h-72.3v110.6h58c3.1,0,5.6,2.5,5.6,5.6v36.7c0,3.1-2.5,5.8-5.6,5.8h-58
			v107.2h72.1c3.1,0,5.8,2.5,5.8,5.6v36.7c0,3.1-2.5,5.8-5.6,5.8h-139.3c-3.1,0-5.6-2.5-5.6-5.6V196.3c0-3.1,2.5-5.6,5.6-5.6h139.3
			c3.1,0,5.6,2.5,5.6,5.6V232.7z"/>
	</g>
	<g>
		<g>
			<path class="st2" d="M1062.5,185.5h-71c-5,0-9.3,3.5-10.2,8.4l-40.8,195.7l-40.6-195.7c-0.9-4.8-5.4-8.4-10.5-8.4h-70.7
				c-6,0-10.8,4.7-10.8,10.8v350.6c0,6,4.7,10.8,10.8,10.8h57.1c6,0,10.8-4.7,10.8-10.8V408.3L911,548.8c0.9,5.2,5.1,8.8,10.3,8.8
				h39.2c5.2,0,9.6-3.7,10.5-8.8l23.8-135.6v133.6c0,6,4.7,10.8,10.8,10.8h57.1c6,0,10.8-4.7,10.8-10.8V196.3
				C1073.2,190.2,1068.5,185.5,1062.5,185.5z"/>
			<path class="st2" d="M1268.8,361.2c17.6-10.7,25.7-32.7,25.7-68.7v-38.1c0-27.7-8-46.7-23.7-56.6c-14.6-8.9-30.3-12.4-55.8-12.4
				h-100.7c-6,0-10.8,4.7-10.8,10.8v350.6c0,6,4.7,10.8,10.8,10.8H1232c25.2,0,41.7-6.4,52-20.2c10-13.4,14.5-34,14.5-66.7v-41.6
				C1298.5,391,1289.7,370.1,1268.8,361.2z M1218.1,471.8c0,26.7-1.3,27.3-18.1,27.3h-13.6V393.5h13.2c10.2,0,13.2,1.9,15,5.4
				c3,5.6,3.5,16.9,3.5,33.3V471.8z M1218.1,308.4c0,12.1-1.4,19.3-4.3,22.7c-2.5,2.9-6.9,4-15.8,4h-11.6l-0.4-91.5h7.6
				c19.9,0,24.6,2.7,24.6,28.9L1218.1,308.4L1218.1,308.4z"/>
		</g>
	</g>
	<g>
		<ellipse class="st3" cx="282" cy="566.4" rx="21.6" ry="24.5"/>
		<g>
			<g>
				<path class="st4" d="M529.9,503.5c-32.5,0-59,26.5-59,59s26.5,59,59,59s59-26.5,59-59S562.5,503.5,529.9,503.5z M529.9,576.7
					c-7.8,0-14.2-6.4-14.2-14.2s6.4-14.2,14.2-14.2s14.2,6.4,14.2,14.2S537.7,576.7,529.9,576.7z"/>
				<path class="st4" d="M282.6,503.5c-32.5,0-59,26.5-59,59s26.5,59,59,59s59-26.5,59-59S315.2,503.5,282.6,503.5z M282.6,576.7
					c-7.8,0-14.2-6.4-14.2-14.2s6.4-14.2,14.2-14.2c7.8,0,14.2,6.4,14.2,14.2S290.4,576.7,282.6,576.7z"/>
				<path class="st4" d="M269.2,501.6c0.6,0,1.2-0.1,1.8-0.2c3.8-0.7,7.7-1.1,11.5-1.1c10.5,0,20.8,2.7,29.9,7.7
					c1.4,0.8,3.1,1.2,4.7,1.2h5.5c5.4,0,9.8-4.4,9.8-9.8V367.2c0-5.4-4.4-9.8-9.8-9.8h-38.5c-16,0-29,13.6-29,30.4v91.1
					c0,6.9,2.2,13.4,6.3,18.9C263.3,500.2,266.2,501.6,269.2,501.6z"/>
				<path class="st4" d="M665,284.7c-0.5-7.9-6.9-14.1-14.8-14.7c3.1-3.1,5.1-7.4,5.1-12.1v-31.3c0-5.4-2.5-10.2-6.5-13.3
					c3.9-3.1,6.5-7.9,6.5-13.3v-31.3c0-9.4-7.6-17-17-17h-87.5c-9.4,0-17,7.6-17,17V200c0,5.4,2.5,10.2,6.5,13.3
					c-3.9,3.1-6.5,7.9-6.5,13.3v23.6l-2.4-7.5c-1.2-5.1-5.2-8.9-10.3-9.4l-173-15.3h-0.4h-0.4c-4.2,0-7.9,3-8.7,7.1
					c-0.3,1.4-0.2,2.8,0.1,4.1l-28.6-12.4c-3.2-1.4-6.6-2.1-10.1-2.1c-10.2,0-19.4,6-23.4,15.4l-3.2,7.4
					c-5.6,12.9,0.4,27.9,13.3,33.5l220.6,95.4l-49,15.3c-3.3,1-5.8,4-6.2,7.4c-0.1,0.5-0.1,1,0,1.4l-40-24.2
					c-9.5-5.8-20.3-8.8-31.3-8.8h-34.5c-5.4,0-9.8,4.4-9.8,9.8v132.3c0,5.4,4.4,9.8,9.8,9.8h148.9c1.6,0,3.3-0.4,4.7-1.2
					c9.1-5.1,19.5-7.7,29.9-7.7c5,0,10,0.6,14.8,1.8c0.8,0.2,1.6,0.3,2.3,0.3c2.8,0,5.4-1.2,7.3-3.3c1.8-2.1,2.7-4.8,2.4-7.6
					c-2.3-20.6-12.2-39.5-27.1-52.7h0.1l89.5-28c8.8-2.8,16.1-8.8,20.4-17c4.3-8.2,5.1-17.6,2.4-26.4l-2-6.4
					c-4.6-14.5-17.8-24.3-33.1-24.3c-3.5,0-7,0.5-10.4,1.6l-17.2,5.4c0.6-1.1,1-2.4,1.1-3.8c0.2-3.7-2-7.2-5.4-8.7l-128.5-55.5h62.2
					l4.9,15c2.1,6.5,8.2,10.9,15,10.9h120.4c4.4,0,8.6-1.8,11.6-5C663.8,293.4,665.3,289.1,665,284.7z M374.1,474.7h-3.2v-58.6h3.2
					V474.7z M407.6,474.7h-3.2v-43.4h3.2V474.7z"/>
				<path class="st4" d="M468.4,570.7c-0.2-1.2-0.6-2.3-1.2-3.3c0.5-1.1,0.7-2.3,0.6-3.5c0-0.5,0-0.9,0-1.4s0-0.9,0-1.4
					c0.1-1.8-0.4-3.5-1.4-5c1.2-1.2,2.1-2.8,2.4-4.7c1.3-7,3.7-13.6,7.2-19.8c1.6-2.8,1.6-6.2,0-9s-4.6-4.5-7.8-4.5H344.3
					c-3.2,0-6.2,1.7-7.8,4.5c-1.6,2.8-1.6,6.2,0,9c3.5,6.1,5.9,12.8,7.2,19.8c0.3,1.8,1.2,3.4,2.4,4.6c-1,1.5-1.5,3.2-1.4,5
					c0,0.5,0,0.9,0,1.4s0,0.9,0,1.4c0,1.2,0.2,2.4,0.6,3.5c-0.6,1-1,2.1-1.2,3.3c-0.1,1-0.3,2-0.5,3c-0.5,2.5,0.2,5.1,1.8,7
					c1.6,1.9,4,3.1,6.6,3.1h108.3c2.5,0,4.9-1.1,6.6-3.1c1.6-2,2.3-4.5,1.8-7C468.6,572.8,468.5,571.8,468.4,570.7z"/>
			</g>
		</g>
		<path class="st4" d="M392.1,686L126.9,420.8c-21.1-21.1-21.1-55.3,0-76.4L392.1,79.2c21.1-21.1,55.3-21.1,76.4,0l265.2,265.2
			c21.1,21.1,21.1,55.3,0,76.4L468.5,686C447.4,707.1,413.2,707.1,392.1,686z"/>
		<g>
			<g>
				<path class="st2" d="M649.2,293.6H528.8c-3.4,0-6.4-2.2-7.4-5.4l-11-33.2c-1.4-4.1,0.9-8.5,5-9.9c4.1-1.4,7-4.5,8.4-0.4
					l8.4,26.2c1.4,4.2,5.3,7,9.7,7H649c4.2,0,7.8,3.2,8.1,7.3C657.3,289.8,653.7,293.6,649.2,293.6z"/>
			</g>
			<path class="st2" d="M638.3,217.5h-87.5c-5,0-9,4-9,9v31.3c0,5,4,9,9,9h87.5c5,0,9-4,9-9v-31.3
				C647.3,221.5,643.3,217.5,638.3,217.5z"/>
			<path class="st2" d="M638.3,159.5h-87.5c-5,0-9,4-9,9v31.3c0,5,4,9,9,9h87.5c5,0,9-4,9-9v-31.3
				C647.3,163.6,643.3,159.5,638.3,159.5z"/>
			<g>
				<path class="st2" d="M439.6,267.7c0.1,0.1,0.2,0.1,0.4,0.1h80.3c2,0,3.6-2.1,3.6-4.8v-17c0-2.5-1.5-4.6-3.4-4.8l-173-15.3
					c-1.1-0.1-1.4,1.4-0.5,1.8L439.6,267.7z"/>
			</g>
			<g>
				<path class="st2" d="M571.9,340.4c0.8-0.3,0.9-1.4,0.1-1.7L307,224.1c-8.9-3.8-19.2,0.2-23,9.1l-3.2,7.4
					c-3.8,8.9,0.2,19.2,9.1,23L511,359.2c0.2,0.1,0.4,0.1,0.6,0L571.9,340.4z"/>
			</g>
			<g>
				<path class="st2" d="M634.4,369.8l-2-6.4c-4.4-14.1-19.4-21.9-33.4-17.5l-138.2,43.3c-0.8,0.2-0.9,1.3-0.2,1.7l61.4,37.2
					c1.6,0.9,3.1,1.9,4.6,3c0.2,0.2,0.5,0.2,0.8,0.1l89.5-28C631,398.8,638.8,383.9,634.4,369.8z"/>
			</g>
			<path class="st2" d="M529.9,511.5c-28.2,0-51,22.8-51,51s22.8,51,51,51s51-22.8,51-51S558.1,511.5,529.9,511.5z M529.9,584.7
				c-12.3,0-22.2-9.9-22.2-22.2s9.9-22.2,22.2-22.2s22.2,9.9,22.2,22.2C552.1,574.8,542.2,584.7,529.9,584.7z"/>
			<path class="st2" d="M282.6,511.5c-28.2,0-51,22.8-51,51s22.8,51,51,51s51-22.8,51-51S310.8,511.5,282.6,511.5z M282.6,584.7
				c-12.3,0-22.2-9.9-22.2-22.2s9.9-22.2,22.2-22.2c12.3,0,22.2,9.9,22.2,22.2C304.8,574.8,294.9,584.7,282.6,584.7z"/>
			<path class="st2" d="M529.9,492.4c5.8,0,11.4,0.7,16.8,2c1.2,0.3,2.3-0.7,2.2-1.9c-2.6-22.9-15.2-43.3-34.3-54.9L408,373.1
				c-8.3-5-17.6-7.6-27.1-7.6h-34.5c-1,0-1.8,0.8-1.8,1.8v132.3c0,1,0.8,1.8,1.8,1.8h148.9c0.3,0,0.6-0.1,0.8-0.2
				C506.1,495.6,517.7,492.4,529.9,492.4z M382.1,479.7c0,1.7-1.3,3-3,3h-13.2c-1.7,0-3-1.3-3-3v-68.6c0-1.7,1.3-3,3-3h13.2
				c1.7,0,3,1.3,3,3V479.7z M412.6,482.7h-13.2c-1.7,0-3-1.3-3-3v-53.4c0-1.7,1.3-3,3-3h13.2c1.7,0,3,1.3,3,3v53.4
				C415.6,481.4,414.2,482.7,412.6,482.7z"/>
			<path class="st2" d="M282.6,492.4c12.3,0,23.8,3.2,33.8,8.7c0.3,0.1,0.5,0.2,0.8,0.2h5.5c1,0,1.8-0.8,1.8-1.8V367.2
				c0-1-0.8-1.8-1.8-1.8h-38.5c-11.6,0-21,10-21,22.4v91.1c0,5.3,1.8,10.2,4.7,14c0.4,0.5,1.1,0.8,1.7,0.6
				C273.8,492.8,278.2,492.4,282.6,492.4z"/>
			<g>
				<path class="st2" d="M468.2,526.2H344.3c-0.8,0-1.3,0.8-0.9,1.5c3.9,6.8,6.7,14.3,8.1,22.3c0.1,0.5,0.5,0.8,1,0.8h107.3
					c0.5,0,0.9-0.4,1-0.8c1.4-8,4.2-15.5,8.1-22.3C469.4,527,469,526.2,468.2,526.2z"/>
			</g>
			<g>
				<path class="st2" d="M459.3,564.8c0.3,0,0.6-0.3,0.5-0.6c0-0.6,0-1.1,0-1.7c0-0.6,0-1.1,0-1.7c0-0.3-0.2-0.6-0.5-0.6h-106
					c-0.3,0-0.6,0.3-0.5,0.6c0,0.6,0,1.1,0,1.7c0,0.6,0,1.1,0,1.7c0,0.3,0.2,0.6,0.5,0.6H459.3z"/>
			</g>
			<g>
				<path class="st2" d="M459.9,571.3H352.6c-0.3,0-0.5,0.2-0.5,0.5c-0.2,1.1-0.3,2.3-0.5,3.4c-0.1,0.3,0.2,0.6,0.5,0.6h108.3
					c0.3,0,0.6-0.3,0.5-0.6c-0.2-1.1-0.4-2.2-0.5-3.4C460.4,571.5,460.2,571.3,459.9,571.3z"/>
			</g>
		</g>
		<g>
			<path class="st2" d="M649.2,293.6H528.8c-3.4,0-6.4-2.2-7.4-5.4l-11-33.2c-1.4-4.1,0.9-8.5,5-9.9c4.1-1.4,7-4.5,8.4-0.4l8.4,26.2
				c1.4,4.2,5.3,7,9.7,7H649c4.2,0,7.8,3.2,8.1,7.3C657.3,289.8,653.7,293.6,649.2,293.6z"/>
			<path class="st2" d="M638.3,217.5h-87.5c-5,0-9,4-9,9v31.3c0,5,4,9,9,9h87.5c5,0,9-4,9-9v-31.3
				C647.3,221.5,643.3,217.5,638.3,217.5z"/>
			<path class="st2" d="M638.3,159.5h-87.5c-5,0-9,4-9,9v31.3c0,5,4,9,9,9h87.5c5,0,9-4,9-9v-31.3
				C647.3,163.6,643.3,159.5,638.3,159.5z"/>
			<path class="st2" d="M439.6,267.7c0.1,0.1,0.2,0.1,0.4,0.1h80.3c2,0,3.6-2.1,3.6-4.8v-17c0-2.5-1.5-4.6-3.4-4.8l-173-15.3
				c-1.1-0.1-1.4,1.4-0.5,1.8L439.6,267.7z"/>
			<path class="st2" d="M571.9,340.4c0.8-0.3,0.9-1.4,0.1-1.7L307,224.1c-8.9-3.8-19.2,0.2-23,9.1l-3.2,7.4
				c-3.8,8.9,0.2,19.2,9.1,23L511,359.2c0.2,0.1,0.4,0.1,0.6,0L571.9,340.4z"/>
			<path class="st2" d="M634.4,369.8l-2-6.4c-4.4-14.1-19.4-21.9-33.4-17.5l-138.2,43.3c-0.8,0.2-0.9,1.3-0.2,1.7l61.4,37.2
				c1.6,0.9,3.1,1.9,4.6,3c0.2,0.2,0.5,0.2,0.8,0.1l89.5-28C631,398.8,638.8,383.9,634.4,369.8z"/>
			<path class="st2" d="M529.9,511.5c-28.2,0-51,22.8-51,51s22.8,51,51,51s51-22.8,51-51S558.1,511.5,529.9,511.5z M529.9,584.7
				c-12.3,0-22.2-9.9-22.2-22.2s9.9-22.2,22.2-22.2s22.2,9.9,22.2,22.2C552.1,574.8,542.2,584.7,529.9,584.7z"/>
			<path class="st2" d="M282.6,511.5c-28.2,0-51,22.8-51,51s22.8,51,51,51s51-22.8,51-51S310.8,511.5,282.6,511.5z M282.6,584.7
				c-12.3,0-22.2-9.9-22.2-22.2s9.9-22.2,22.2-22.2c12.3,0,22.2,9.9,22.2,22.2C304.8,574.8,294.9,584.7,282.6,584.7z"/>
			<path class="st2" d="M529.9,492.4c5.8,0,11.4,0.7,16.8,2c1.2,0.3,2.3-0.7,2.2-1.9c-2.6-22.9-15.2-43.3-34.3-54.9L408,373.1
				c-8.3-5-17.6-7.6-27.1-7.6h-34.5c-1,0-1.8,0.8-1.8,1.8v132.3c0,1,0.8,1.8,1.8,1.8h148.9c0.3,0,0.6-0.1,0.8-0.2
				C506.1,495.6,517.7,492.4,529.9,492.4z M382.1,479.7c0,1.7-1.3,3-3,3h-13.2c-1.7,0-3-1.3-3-3v-68.6c0-1.7,1.3-3,3-3h13.2
				c1.7,0,3,1.3,3,3V479.7z M412.6,482.7h-13.2c-1.7,0-3-1.3-3-3v-53.4c0-1.7,1.3-3,3-3h13.2c1.7,0,3,1.3,3,3v53.4
				C415.6,481.4,414.2,482.7,412.6,482.7z"/>
			<path class="st2" d="M282.6,492.4c12.3,0,23.8,3.2,33.8,8.7c0.3,0.1,0.5,0.2,0.8,0.2h5.5c1,0,1.8-0.8,1.8-1.8V367.2
				c0-1-0.8-1.8-1.8-1.8h-38.5c-11.6,0-21,10-21,22.4v91.1c0,5.3,1.8,10.2,4.7,14c0.4,0.5,1.1,0.8,1.7,0.6
				C273.8,492.8,278.2,492.4,282.6,492.4z"/>
			<path class="st2" d="M468.2,526.2H344.3c-0.8,0-1.3,0.8-0.9,1.5c3.9,6.8,6.7,14.3,8.1,22.3c0.1,0.5,0.5,0.8,1,0.8h107.3
				c0.5,0,0.9-0.4,1-0.8c1.4-8,4.2-15.5,8.1-22.3C469.4,527,469,526.2,468.2,526.2z"/>
			<path class="st2" d="M459.3,564.8c0.3,0,0.6-0.3,0.5-0.6c0-0.6,0-1.1,0-1.7c0-0.6,0-1.1,0-1.7c0-0.3-0.2-0.6-0.5-0.6h-106
				c-0.3,0-0.6,0.3-0.5,0.6c0,0.6,0,1.1,0,1.7c0,0.6,0,1.1,0,1.7c0,0.3,0.2,0.6,0.5,0.6H459.3z"/>
			<g>
				<path class="st2" d="M459.9,571.3H352.6c-0.3,0-0.5,0.2-0.5,0.5c-0.2,1.1-0.3,2.3-0.5,3.4c-0.1,0.3,0.2,0.6,0.5,0.6h108.3
					c0.3,0,0.6-0.3,0.5-0.6c-0.2-1.1-0.4-2.2-0.5-3.4C460.4,571.5,460.2,571.3,459.9,571.3z"/>
			</g>
		</g>
	</g>
</g>
</svg>
