<?xml version="1.0" encoding="utf-8"?>
<!-- Generator: Adobe Illustrator 27.8.0, SVG Export Plug-In . SVG Version: 6.00 Build 0)  -->
<svg version="1.1" id="Layer_1" xmlns="http://www.w3.org/2000/svg" xmlns:xlink="http://www.w3.org/1999/xlink" x="0px" y="0px"
	 viewBox="0 0 512 512" style="enable-background:new 0 0 512 512;" xml:space="preserve">
<style type="text/css">
	.st0{fill:#478BCC;}
</style>
<g>
	<path class="st0" d="M423.8,449.5c-23.5,0-42.7-19.2-42.7-42.7c0-23.5,19.2-42.7,42.7-42.7c23.5,0,42.7,19.2,42.7,42.7
		C466.5,430.3,447.3,449.5,423.8,449.5z M423.8,378.6c-15.5,0-28.1,12.6-28.1,28.1c0,15.5,12.6,28.1,28.1,28.1
		c15.5,0,28.1-12.6,28.1-28.1C451.9,391.3,439.3,378.6,423.8,378.6z"/>
	<path class="st0" d="M210.2,449.5c-23.5,0-42.7-19.2-42.7-42.7c0-23.5,19.2-42.7,42.7-42.7s42.7,19.2,42.7,42.7
		C252.9,430.3,233.8,449.5,210.2,449.5z M210.2,378.6c-15.5,0-28.1,12.6-28.1,28.1c0,15.5,12.6,28.1,28.1,28.1s28.1-12.6,28.1-28.1
		C238.4,391.3,225.7,378.6,210.2,378.6z"/>
	<path class="st0" d="M501.4,329.1c-3-2.9-6.9-4.5-11-4.8v-8.7c0-10-8.1-18.1-18.1-18.1h-1.2l-37.5-25.6c-5-3.4-10.8-5.2-16.9-5.2
		c-3.2,0-6.3-1-8.9-2.9L228.7,135.1c-0.4-0.3-0.8-0.4-1.2-0.5c-0.4-0.2-0.9-0.5-1.3-0.6c-0.5-0.1-0.9-0.1-1.4-0.1
		c-0.5,0-0.9-0.1-1.4,0c-0.5,0.1-0.9,0.3-1.4,0.5c-0.4,0.2-0.9,0.2-1.2,0.5c-0.4,0.2-0.7,0.6-1.1,1c-0.2,0.2-0.5,0.4-0.7,0.6
		l-45.7-31.6c-9.1-6.3-20.8-6.9-30.5-1.5l-20.1,11.2V69.8c0-4-3.3-7.3-7.3-7.3s-7.3,3.3-7.3,7.3v56.9v11.7H13.3
		c-4,0-7.3,3.3-7.3,7.3s3.3,7.3,7.3,7.3H108v6.9c0,4,3.3,7.3,7.3,7.3s7.3-3.3,7.3-7.3v-12.2l22.7-12.1c3-1.6,6.7-1.3,9.5,0.7
		l40.8,30.2l-0.7,0.9c-1.2,1.6-1.7,3.6-1.4,5.5c0.3,2,1.4,3.7,3,4.9L322.9,269h-17.7c-6.6,0-13,2.8-17.4,7.7
		c-16.4,18.2-26.9,31.9-35.6,52c-3.6,8.2-1.8,17.5,4.4,23.7c0,0,0,0,0,0l1.9,1.9c6.9,6.8,12.8,12.6,18.1,28.7c1,3,3.8,5,6.9,5h70.3
		c2.9,0,5.6-1.7,6.7-4.4c7.3-17,12.4-27.4,21-42.7c2.8-5,3.7-10.8,2.6-16.3l-2.7-13.1l22.9,16.7l-4.6,0.2c-2.3,0.1-4.4,1.3-5.7,3.3
		c-16.1,24.3-23.2,39.3-32.2,63.2h-87.8c-3.9-26.4-28.5-52.2-63.7-52.2c-4,0-7.3,3.3-7.3,7.3s3.3,7.3,7.3,7.3
		c29.7,0,49.6,23.2,49.6,44.9c0,4,3.3,7.3,7.3,7.3h99.7c3.1,0,5.8-1.9,6.8-4.8c9.1-24.5,15.5-39.1,30.4-61.9l84.6-4
		c1.4-0.1,2.2,0.6,2.6,1c0.4,0.4,1.1,1.2,1.1,2.5v43.6c0,4-2.6,7.3-6.2,8.5c-4.6-15-14.8-32.5-31.2-42.2
		c-13.8-8.2-29.8-9.7-47.5-4.5c-3.9,1.1-6.1,5.2-5,9c1.1,3.9,5.2,6.1,9,5c13.7-4,25.8-3,36,3.1c14.8,8.7,23.2,26.4,26,38.9
		c0.7,3.3,3.7,5.7,7.1,5.7h2.8c13,0,23.5-10.5,23.5-23.5v-43.6C507,337.2,505,332.5,501.4,329.1z M149.5,120
		c-4.2,0-23.4,11.7-26.9,13.5v-4.7l25.9-14.4c4.8-2.7,11.9-0.9,16.4,2.2l44.4,30.7l-5.3,7.1l-40.5-29.9
		C159.4,121.6,154.4,120,149.5,120z M265.5,334.5c7.1-16.3,15.4-28.4,33.1-48.1c1.6-1.8,4-2.9,6.5-2.9h33c0,26.5-0.6,41.4-7.7,47.3
		c-8.2,6.8-28.6,6.9-65.4,6.9C264.9,336.7,265.1,335.6,265.5,334.5z M368.7,333.7c-8.1,14.4-13.2,24.6-19.8,39.7h-60.3
		c-3.7-9.7-7.8-16-12-21c70.4-0.5,75.8-6.6,76.1-68.8h0.8c4.2,0,7.9,3,8.7,7.2l7.4,36.7C370.2,329.5,369.8,331.8,368.7,333.7z
		 M377.1,290.2l-0.5-2.4c-2.2-10.9-11.9-18.8-23-18.8h-5.7l-136.7-98.6l14.8-19.3l173.4,124.5c5.1,3.7,11.1,5.6,17.4,5.6
		c3.1,0,6.1,0.9,8.6,2.7l39.3,26.9c1.2,0.8,2.6,1.3,4.1,1.3h3.4c1.9,0,3.5,1.6,3.5,3.5v9.1l-48.2,2.3L377.1,290.2z"/>
</g>
</svg>
