<?xml version="1.0" encoding="utf-8"?>
<!-- Generator: Adobe Illustrator 27.8.0, SVG Export Plug-In . SVG Version: 6.00 Build 0)  -->
<svg version="1.1" id="Layer_1" xmlns="http://www.w3.org/2000/svg" xmlns:xlink="http://www.w3.org/1999/xlink" x="0px" y="0px"
	 viewBox="0 0 512 512" style="enable-background:new 0 0 512 512;" xml:space="preserve">
<style type="text/css">
	.st0{fill:#478BCC;}
</style>
<g>
	<path class="st0" d="M463.4,305.2v-84.6c0-4.7-3.8-8.6-8.6-8.6v-94.3c0-4.7-3.8-8.6-8.6-8.6h-120c-4.7,0-8.6,3.8-8.6,8.6
		c0,4.7,3.8,8.6,8.6,8.6h111.4V212h-17.1v-60c0-4.7-3.8-8.6-8.6-8.6c-4.7,0-8.6,3.8-8.6,8.6v34.3h-34.3c-4.7,0-8.6,3.8-8.6,8.6
		s3.8,8.6,8.6,8.6v8.6h-34.3v-30.8l14.7-14.6c3.4-3.4,3.4-8.8,0-12.2c-3.4-3.4-8.8-3.4-12.2,0l0,0l-17.1,17.1
		c-1.6,1.6-2.5,3.8-2.5,6.1V212h-17.1v-85.7c0-4.7-3.8-8.6-8.6-8.6H52.1c-4.7,0-8.6,3.8-8.6,8.6V152H26.4c-4.7,0-8.6,3.8-8.6,8.6
		v150c0,63.9,51.9,115.7,115.7,115.6c38.6,0,74.6-19.3,96.1-51.4h140.8c7.1,34.8,41,57.2,75.8,50.1c34.8-7.1,57.2-41,50.1-75.8
		C492.5,330.3,480.4,314.1,463.4,305.2z M386.3,203.4h17.1v8.6h-17.1V203.4z M34.9,310.5c0-4.3,0.3-8.6,0.9-12.9h93.3
		c7.1,0,12.8,5.8,12.8,12.9c0,3.4-1.4,6.7-3.8,9.1c-2.4,2.4-5.7,3.8-9.1,3.8H35.9C35.3,319.1,34.9,314.9,34.9,310.5z M133.5,409.1
		c-42.8-0.1-80.7-27.8-93.8-68.6h89.5c7.9,0.1,15.6-3,21.3-8.6c11.8-11.7,11.8-30.8,0.1-42.5c-5.7-5.7-13.4-8.9-21.4-8.9H39.6
		c16.6-51.8,72-80.4,123.9-63.9s80.4,72,63.9,123.9c-13,40.7-50.8,68.4-93.5,68.6H133.5z M133.5,194.9c-40.2,0.1-77.5,21-98.5,55.4
		v-81.1h17.1c4.7,0,8.6-3.8,8.6-8.6v-25.7h222.8v85.7c0,4.7,3.8,8.6,8.6,8.6h154.2V299c-4.2-0.9-8.5-1.3-12.9-1.3
		c-33.9-0.1-62,26.2-64.3,60H239.1c26.1-58.2,0.1-126.6-58.1-152.7C166,198.3,149.8,194.8,133.5,194.9z M433.4,409.1
		c-26,0-47.1-21.1-47.1-47.1c0-26,21.1-47.1,47.1-47.1c26,0,47.1,21.1,47.1,47.1l0,0C480.5,388,459.4,409,433.4,409.1z"/>
	<path class="st0" d="M240.6,100.6h205.7c4.7,0,8.6-3.8,8.6-8.6c0-4.7-3.8-8.6-8.6-8.6H240.6c-4.7,0-8.6,3.8-8.6,8.6
		C232,96.8,235.9,100.6,240.6,100.6z"/>
</g>
</svg>
